<svg width="833" height="601" viewBox="0 0 833 601" version="1.1" xmlns="http://www.w3.org/2000/svg" xmlns:xlink="http://www.w3.org/1999/xlink">
<title>icon-social</title>
<desc>Created using Figma</desc>
<g id="Canvas" transform="translate(-3750 558)">
<g id="icon-social">
<g id="Union">
<use xlink:href="#path0_fill" transform="translate(3750 -558)" fill="#FFFFFF"/>
<mask id="mask0_outline_ins">
<use xlink:href="#path0_fill" fill="white" transform="translate(3750 -558)"/>
</mask>
<g mask="url(#mask0_outline_ins)">
<use xlink:href="#path1_stroke_2x" transform="translate(3750 -558)" fill="#E3E3E0"/>
</g>
</g>
<g id="Ellipse 8">
<use xlink:href="#path2_fill" transform="translate(3976 -464.885)" fill="#AEC852"/>
</g>
<g id="Ellipse 8">
<use xlink:href="#path2_fill" transform="matrix(-1 0 0 1 4384 -465)" fill="#AEC852"/>
</g>
</g>
</g>
<defs>
<path id="path0_fill" d="M 580.03 483.902C 580.249 483.8 580.481 483.717 580.715 483.656C 729.088 445.103 833 355.894 833 252L 833 252C 833 112.824 646.526 8.05729e-17 416.5 4.31556e-35L 416.5 0C 186.473 0 2.19933e-16 112.824 1.94547e-34 252L 0 252C 0 384.403 168.766 492.957 383.244 503.208C 387.14 503.395 388.592 508.453 385.302 510.548C 345.915 535.624 299.44 559.543 241.086 587.86C 236.918 589.883 238.73 595.73 243.265 594.78C 300.516 582.785 438.384 549.639 580.03 483.902Z"/>
<path id="path1_stroke_2x" d="M 580.715 483.656L 585.745 503.014L 580.715 483.656ZM 416.5 4.31556e-35L 396.5 4.31556e-35L 396.5 20L 416.5 20L 416.5 4.31556e-35ZM 1.94547e-34 252L 1.94547e-34 272L 20 272L 20 252L 1.94547e-34 252ZM 383.244 503.208L 382.289 523.186L 383.244 503.208ZM 241.086 587.86L 249.818 605.853L 241.086 587.86ZM 580.03 483.902L 588.45 502.043L 580.03 483.902ZM 416.5 0L 436.5 0L 436.5 -20L 416.5 -20L 416.5 0ZM 0 252L 0 232L -20 232L -20 252L 0 252ZM 385.302 510.548L 374.561 493.677L 385.302 510.548ZM 243.265 594.78L 247.366 614.355L 243.265 594.78ZM 813 252C 813 296.798 790.669 340.035 749.111 377.471C 706.663 415.944 647.828 445.672 575.685 464.299L 585.745 503.014C 661.975 483.087 729.282 448.934 775.883 407.191C 823.375 364.41 853 311.095 853 252L 813 252ZM 416.5 20C 528.482 20 628.898 47.5038 700.657 90.9208C 772.788 134.563 813 192.114 813 252L 853 252C 853 172.71 799.975 104.261 721.363 56.6974C 642.378 8.90834 534.544 -20 416.5 -20L 416.5 20ZM 20 252C 20 192.114 60.2121 134.563 132.343 90.9208C 204.102 47.5038 304.518 20 416.5 20L 416.5 -20C 298.456 -20 190.621 8.90834 111.637 56.6974C 33.0246 104.261 -20 172.71 -20 252L 20 252ZM 384.199 483.231C 279.836 478.243 187.62 449.348 122.113 406.655C 56.3535 363.798 20 308.985 20 252L -20 252C -20 327.418 28.0295 393.083 100.273 440.166C 172.768 487.414 272.174 517.922 382.289 523.186L 384.199 483.231ZM 249.818 605.853C 308.382 577.432 355.872 552.969 396.043 527.419L 374.561 493.677C 335.958 518.279 290.497 541.653 232.355 569.867L 249.818 605.853ZM 571.611 465.76C 431.805 530.753 296.128 563.273 239.163 575.205L 247.366 614.355C 304.905 602.298 444.964 568.526 588.45 502.043L 571.611 465.76ZM 575.685 464.299C 574.589 464.605 572.66 465.296 571.611 465.76L 588.45 502.043C 587.572 502.451 586.669 502.773 585.745 503.014L 575.685 464.299ZM 436.5 4.31556e-35L 436.5 0L 396.5 0L 396.5 4.31556e-35L 436.5 4.31556e-35ZM 1.94547e-34 232L 0 232L 0 272L 1.94547e-34 272L 1.94547e-34 232ZM 382.289 523.186C 368.13 522.509 360.184 502.83 374.561 493.677L 396.043 527.419C 417 514.076 406.15 484.28 384.199 483.231L 382.289 523.186ZM 232.355 569.867C 221.101 575.328 216.458 587.637 219.822 598.401C 223.28 609.467 234.651 617.019 247.366 614.355L 239.163 575.205C 247.343 573.491 255.54 578.595 258.001 586.469C 260.367 594.041 256.903 602.415 249.818 605.853L 232.355 569.867Z"/>
<path id="path2_fill" d="M 205.027 81.6311C 205.027 157.461 205.027 232.425 205.027 349.885C 192.708 295.917 13.4019 241.949 1.08305 137.187C -5.9675 77.2276 21.6142 30.8375 77.7329 7.02797C 132.929 -16.3902 196.814 21.3136 205.027 81.6311Z"/>
</defs>
</svg>
